<?xml version="1.0" encoding="UTF-8" standalone="no"?>
<!-- Created with Inkscape (http://www.inkscape.org/) -->

<svg
   version="1.1"
   id="svg1"
   width="907.79999"
   height="130.54668"
   viewBox="0 0 907.79999 130.54668"
   xmlns="http://www.w3.org/2000/svg"
   xmlns:svg="http://www.w3.org/2000/svg">
  <defs
     id="defs1" />
  <g
     id="g1">
    <g
       id="group-R5">
      <path
         id="path2"
         d="m 1896.01,477.543 h -159.59 v 125.105 h -125 v 159.59 h 284.59 V 477.543"
         style="fill:#231f20;fill-opacity:1;fill-rule:nonzero;stroke:none"
         transform="matrix(0.13333333,0,0,-0.13333333,0,130.54667)" />
      <path
         id="path3"
         d="m 1089.35,478.418 c 0,-70.055 -56.99,-127.047 -127.041,-127.047 -70.055,0 -127.047,56.992 -127.047,127.047 0,70.051 56.992,127.043 127.047,127.043 70.051,0 127.041,-56.992 127.041,-127.043 z m 172.2,0 c 0,158.051 -120.94,286.633 -269.581,286.633 -68.5,0 -131.102,-27.317 -178.707,-72.231 v 59.336 H 653.672 V 0 h 159.59 v 264.012 c 47.605,-44.91 110.207,-72.231 178.707,-72.231 148.641,0 269.581,128.586 269.581,286.637"
         style="fill:#231f20;fill-opacity:1;fill-rule:nonzero;stroke:none"
         transform="matrix(0.13333333,0,0,-0.13333333,0,130.54667)" />
      <path
         id="path4"
         d="M 187.965,381.871 H 553.184 V 204.551 L 0,204.676 v 759.179 l 553.184,0.129 V 786.66 H 187.965 V 671.824 h 325.64 V 494.5 H 187.965 V 381.871"
         style="fill:#231f20;fill-opacity:1;fill-rule:nonzero;stroke:none"
         transform="matrix(0.13333333,0,0,-0.13333333,0,130.54667)" />
      <path
         id="path5"
         d="m 1733.08,449.066 c -12.97,-55.187 -62.57,-96.41 -121.66,-96.41 -68.92,0 -125,56.074 -125,124.996 0,59.086 41.23,108.692 96.42,121.661 v 161.496 c -143.55,-14.383 -256.01,-135.883 -256.01,-283.157 0,-156.922 127.67,-284.589 284.59,-284.589 147.28,0 268.78,112.457 283.16,256.003 h -161.5"
         style="fill:#231f20;fill-opacity:1;fill-rule:nonzero;stroke:none"
         transform="matrix(0.13333333,0,0,-0.13333333,0,130.54667)" />
      <path
         id="path6"
         d="m 2338.37,388.59 c 0,0 0,-0.004 -0.01,-0.004 -49.53,-49.535 -130.13,-49.535 -179.67,0 -23.99,23.992 -37.21,55.898 -37.21,89.832 0,33.934 13.22,65.84 37.21,89.832 24.77,24.77 57.3,37.152 89.84,37.152 32.53,0 65.06,-12.382 89.83,-37.144 l 112.84,112.847 c -111.76,111.75 -293.59,111.754 -405.35,-0.003 -54.14,-54.141 -83.96,-126.122 -83.96,-202.684 0,-76.563 29.82,-148.543 83.96,-202.684 55.88,-55.879 129.28,-83.816 202.68,-83.816 73.4,0 146.8,27.937 202.68,83.816 0,0.004 0.01,0.004 0.01,0.008 L 2338.37,388.59"
         style="fill:#231f20;fill-opacity:1;fill-rule:nonzero;stroke:none"
         transform="matrix(0.13333333,0,0,-0.13333333,0,130.54667)" />
      <path
         id="path7"
         d="m 3695.22,433.777 v 0 c -82.03,-82.027 -215.5,-82.027 -297.53,0 -82.03,82.032 -82.03,215.504 0,297.532 41.02,41.015 94.89,61.523 148.77,61.523 53.87,0 107.75,-20.508 148.76,-61.523 v 0 l 131.66,131.656 v 0 0 c -74.91,74.902 -174.5,116.152 -280.42,116.152 -105.93,0 -205.52,-41.25 -280.43,-116.152 -74.9,-74.902 -116.15,-174.492 -116.15,-280.422 0,-105.93 41.25,-205.52 116.16,-280.418 74.9,-74.906 174.49,-116.156 280.42,-116.156 105.92,0 205.51,41.25 280.42,116.156 v 0 l -131.66,131.652"
         style="fill:#231f20;fill-opacity:1;fill-rule:nonzero;stroke:none"
         transform="matrix(0.13333333,0,0,-0.13333333,0,130.54667)" />
      <path
         id="path8"
         d="m 5937.91,605.402 c -32.53,0 -65.07,-12.382 -89.83,-37.152 -24,-23.992 -37.21,-55.898 -37.21,-89.832 0,-33.934 13.21,-65.84 37.21,-89.832 49.53,-49.539 130.13,-49.539 179.67,0 23.99,23.992 37.21,55.898 37.21,89.832 0,33.934 -13.22,65.84 -37.21,89.832 -24.77,24.77 -57.31,37.152 -89.84,37.152 z m 0,-413.484 c -73.4,0 -146.8,27.937 -202.68,83.816 -54.14,54.141 -83.95,126.121 -83.95,202.684 0,76.562 29.81,148.543 83.95,202.684 111.76,111.757 293.6,111.753 405.36,0 54.14,-54.141 83.96,-126.122 83.96,-202.684 0,-76.563 -29.82,-148.543 -83.96,-202.684 -55.88,-55.879 -129.28,-83.816 -202.68,-83.816"
         style="fill:#231f20;fill-opacity:1;fill-rule:nonzero;stroke:none"
         transform="matrix(0.13333333,0,0,-0.13333333,0,130.54667)" />
      <path
         id="path9"
         d="m 4145.02,351.371 c -70.06,0 -127.05,56.992 -127.05,127.047 0,70.051 56.99,127.043 127.05,127.043 70.05,0 127.04,-56.992 127.04,-127.043 0,-70.055 -56.99,-127.047 -127.04,-127.047 z m 149.04,401.641 v -60.219 c -47.61,44.926 -110.22,72.262 -178.74,72.262 -148.64,0 -269.58,-128.586 -269.58,-286.637 0,-158.051 120.94,-286.637 269.58,-286.637 68.52,0 131.13,27.332 178.74,72.262 v -59.367 h 159.59 v 548.336 h -159.59"
         style="fill:#231f20;fill-opacity:1;fill-rule:nonzero;stroke:none"
         transform="matrix(0.13333333,0,0,-0.13333333,0,130.54667)" />
      <path
         id="path10"
         d="m 5294.55,351.371 c -70.05,0 -127.04,56.992 -127.04,127.047 0,70.051 56.99,127.043 127.04,127.043 70.06,0 127.05,-56.992 127.05,-127.043 0,-70.055 -56.99,-127.047 -127.05,-127.047 z m 29.66,413.684 c -68.5,0 -131.1,-27.321 -178.7,-72.231 v 264.012 h -159.59 v -752.16 h 159.59 v 59.336 c 47.6,-44.91 110.2,-72.231 178.7,-72.231 148.65,0 269.58,128.586 269.58,286.637 0,158.051 -120.93,286.637 -269.58,286.637"
         style="fill:#231f20;fill-opacity:1;fill-rule:nonzero;stroke:none"
         transform="matrix(0.13333333,0,0,-0.13333333,0,130.54667)" />
      <path
         id="path11"
         d="m 4709.79,465.434 c 0,39.453 13.14,71.902 38,93.839 24.98,22.051 62.03,33.707 107.15,33.707 19.23,0 38.26,-1.722 55.01,-4.98 l 9.46,-1.84 v 164.031 l -6.84,0.778 c -18.33,2.082 -33.53,3.136 -45.17,3.136 -69.78,0 -125.59,-22.601 -157.61,-62.902 l -0.03,61.809 h -159.6 V 204.676 h 159.6 l 0.03,260.758"
         style="fill:#231f20;fill-opacity:1;fill-rule:nonzero;stroke:none"
         transform="matrix(0.13333333,0,0,-0.13333333,0,130.54667)" />
      <path
         id="path12"
         d="m 6447.23,489.66 c 0,28.922 10.48,55.028 29.51,73.5 18.86,18.309 45.29,28.391 74.41,28.391 61.33,0 96.5,-35.262 96.5,-96.746 V 204.676 h 160.89 v 335.433 c 0,66.313 -19.67,120.985 -54.46,158.106 -35.31,37.676 -86.63,57.59 -150.83,57.59 -70.43,0 -131.89,-28.606 -156.02,-73.196 l -0.15,70.403 H 6287.49 V 204.676 h 159.59 l 0.15,284.984"
         style="fill:#231f20;fill-opacity:1;fill-rule:nonzero;stroke:none"
         transform="matrix(0.13333333,0,0,-0.13333333,0,130.54667)" />
      <path
         id="path13"
         d="m 2678.39,489.66 c 0,28.922 10.48,55.028 29.51,73.5 18.86,18.309 45.29,28.391 74.41,28.391 61.33,0 96.5,-35.262 96.5,-96.746 V 204.676 h 160.89 v 335.433 c 0,66.313 -19.67,120.985 -54.46,158.106 -35.32,37.676 -86.63,57.59 -150.83,57.59 -70.43,0 -131.89,-28.606 -156.02,-73.196 l -0.15,274.227 h -159.59 v -752.16 h 159.59 l 0.15,284.984"
         style="fill:#231f20;fill-opacity:1;fill-rule:nonzero;stroke:none"
         transform="matrix(0.13333333,0,0,-0.13333333,0,130.54667)" />
    </g>
  </g>
</svg>
