<?xml version="1.0" encoding="UTF-8"?>
<svg xmlns="http://www.w3.org/2000/svg" xmlns:xlink="http://www.w3.org/1999/xlink" width="680.85pt" height="97.91pt" viewBox="0 0 680.85 97.91" version="1.1">
<defs>
<clipPath id="clip1">
  <path d="M 65 21 L 127 21 L 127 97.910156 L 65 97.910156 Z M 65 21 "/>
</clipPath>
<clipPath id="clip2">
  <path d="M 628 22 L 680.851563 22 L 680.851563 78 L 628 78 Z M 628 22 "/>
</clipPath>
</defs>
<g id="surface1">
<path style=" stroke:none;fill-rule:nonzero;fill:rgb(13.699341%,12.199402%,12.5%);fill-opacity:1;" d="M 189.601563 50.15625 L 173.640625 50.15625 L 173.640625 37.644531 L 161.140625 37.644531 L 161.140625 21.6875 L 189.601563 21.6875 L 189.601563 50.15625 "/>
<g clip-path="url(#clip1)" clip-rule="nonzero">
<path style=" stroke:none;fill-rule:nonzero;fill:rgb(13.699341%,12.199402%,12.5%);fill-opacity:1;" d="M 108.933594 50.066406 C 108.933594 57.074219 103.234375 62.773438 96.230469 62.773438 C 89.226563 62.773438 83.527344 57.074219 83.527344 50.066406 C 83.527344 43.0625 89.226563 37.363281 96.230469 37.363281 C 103.234375 37.363281 108.933594 43.0625 108.933594 50.066406 Z M 126.15625 50.066406 C 126.15625 34.261719 114.0625 21.40625 99.195313 21.40625 C 92.347656 21.40625 86.085938 24.136719 81.328125 28.628906 L 81.328125 22.695313 L 65.367188 22.695313 L 65.367188 97.910156 L 81.328125 97.910156 L 81.328125 71.507813 C 86.085938 76 92.347656 78.730469 99.195313 78.730469 C 114.0625 78.730469 126.15625 65.875 126.15625 50.066406 "/>
</g>
<path style=" stroke:none;fill-rule:nonzero;fill:rgb(13.699341%,12.199402%,12.5%);fill-opacity:1;" d="M 18.796875 59.722656 L 55.320313 59.722656 L 55.320313 77.453125 L 0 77.441406 L 0 1.523438 L 55.320313 1.511719 L 55.320313 19.242188 L 18.796875 19.242188 L 18.796875 30.726563 L 51.359375 30.726563 L 51.359375 48.460938 L 18.796875 48.460938 L 18.796875 59.722656 "/>
<path style=" stroke:none;fill-rule:nonzero;fill:rgb(13.699341%,12.199402%,12.5%);fill-opacity:1;" d="M 173.308594 53.003906 C 172.011719 58.523438 167.050781 62.644531 161.140625 62.644531 C 154.25 62.644531 148.640625 57.035156 148.640625 50.144531 C 148.640625 44.234375 152.765625 39.277344 158.285156 37.980469 L 158.285156 21.828125 C 143.929688 23.265625 132.683594 35.417969 132.683594 50.144531 C 132.683594 65.835938 145.449219 78.605469 161.140625 78.605469 C 175.871094 78.605469 188.019531 67.359375 189.457031 53.003906 L 173.308594 53.003906 "/>
<path style=" stroke:none;fill-rule:nonzero;fill:rgb(13.699341%,12.199402%,12.5%);fill-opacity:1;" d="M 233.835938 59.050781 C 228.882813 64.003906 220.824219 64.003906 215.867188 59.050781 C 213.46875 56.652344 212.148438 53.460938 212.148438 50.066406 C 212.148438 46.675781 213.46875 43.484375 215.867188 41.085938 C 218.347656 38.609375 221.597656 37.371094 224.851563 37.371094 C 228.105469 37.371094 231.359375 38.609375 233.835938 41.085938 L 245.121094 29.800781 C 233.945313 18.625 215.761719 18.625 204.585938 29.800781 C 199.171875 35.214844 196.1875 42.410156 196.1875 50.066406 C 196.1875 57.722656 199.171875 64.921875 204.585938 70.335938 C 210.171875 75.925781 217.511719 78.71875 224.851563 78.71875 C 232.191406 78.71875 239.53125 75.925781 245.121094 70.335938 L 233.835938 59.050781 "/>
<path style=" stroke:none;fill-rule:nonzero;fill:rgb(13.699341%,12.199402%,12.5%);fill-opacity:1;" d="M 369.523438 54.53125 C 361.320313 62.734375 347.972656 62.734375 339.769531 54.53125 C 331.566406 46.328125 331.566406 32.980469 339.769531 24.777344 C 343.871094 20.675781 349.257813 18.625 354.644531 18.625 C 360.03125 18.625 365.421875 20.675781 369.523438 24.777344 L 382.6875 11.613281 C 375.195313 4.125 365.238281 0 354.644531 0 C 344.054688 0 334.09375 4.125 326.601563 11.613281 C 319.113281 19.105469 314.988281 29.0625 314.988281 39.65625 C 314.988281 50.25 319.113281 60.207031 326.605469 67.699219 C 334.09375 75.1875 344.054688 79.3125 354.644531 79.3125 C 365.238281 79.3125 375.195313 75.1875 382.6875 67.699219 L 369.523438 54.53125 "/>
<path style=" stroke:none;fill-rule:nonzero;fill:rgb(13.699341%,12.199402%,12.5%);fill-opacity:1;" d="M 593.789063 37.371094 C 590.539063 37.371094 587.285156 38.609375 584.808594 41.085938 C 582.40625 43.484375 581.085938 46.675781 581.085938 50.066406 C 581.085938 53.460938 582.40625 56.652344 584.808594 59.050781 C 589.761719 64.003906 597.820313 64.003906 602.773438 59.050781 C 605.175781 56.652344 606.496094 53.460938 606.496094 50.066406 C 606.496094 46.675781 605.175781 43.484375 602.773438 41.085938 C 600.296875 38.609375 597.042969 37.371094 593.789063 37.371094 Z M 593.789063 78.71875 C 586.449219 78.71875 579.109375 75.925781 573.523438 70.335938 C 568.109375 64.921875 565.128906 57.722656 565.128906 50.066406 C 565.128906 42.410156 568.109375 35.214844 573.523438 29.800781 C 584.699219 18.625 602.882813 18.625 614.058594 29.800781 C 619.472656 35.214844 622.453125 42.410156 622.453125 50.066406 C 622.453125 57.722656 619.472656 64.921875 614.058594 70.335938 C 608.472656 75.925781 601.132813 78.71875 593.789063 78.71875 "/>
<path style=" stroke:none;fill-rule:nonzero;fill:rgb(13.699341%,12.199402%,12.5%);fill-opacity:1;" d="M 414.503906 62.773438 C 407.496094 62.773438 401.796875 57.074219 401.796875 50.066406 C 401.796875 43.0625 407.496094 37.363281 414.503906 37.363281 C 421.507813 37.363281 427.207031 43.0625 427.207031 50.066406 C 427.207031 57.074219 421.507813 62.773438 414.503906 62.773438 Z M 429.40625 22.609375 L 429.40625 28.628906 C 424.644531 24.136719 418.382813 21.40625 411.53125 21.40625 C 396.667969 21.40625 384.574219 34.261719 384.574219 50.066406 C 384.574219 65.875 396.667969 78.730469 411.53125 78.730469 C 418.382813 78.730469 424.644531 76 429.40625 71.503906 L 429.40625 77.441406 L 445.363281 77.441406 L 445.363281 22.609375 L 429.40625 22.609375 "/>
<path style=" stroke:none;fill-rule:nonzero;fill:rgb(13.699341%,12.199402%,12.5%);fill-opacity:1;" d="M 529.453125 62.773438 C 522.449219 62.773438 516.75 57.074219 516.75 50.066406 C 516.75 43.0625 522.449219 37.363281 529.453125 37.363281 C 536.460938 37.363281 542.160156 43.0625 542.160156 50.066406 C 542.160156 57.074219 536.460938 62.773438 529.453125 62.773438 Z M 532.421875 21.40625 C 525.570313 21.40625 519.3125 24.136719 514.550781 28.628906 L 514.550781 2.226563 L 498.59375 2.226563 L 498.59375 77.441406 L 514.550781 77.441406 L 514.550781 71.507813 C 519.3125 76 525.570313 78.730469 532.421875 78.730469 C 547.285156 78.730469 559.378906 65.875 559.378906 50.066406 C 559.378906 34.261719 547.285156 21.40625 532.421875 21.40625 "/>
<path style=" stroke:none;fill-rule:nonzero;fill:rgb(13.699341%,12.199402%,12.5%);fill-opacity:1;" d="M 470.980469 51.367188 C 470.980469 47.421875 472.292969 44.175781 474.777344 41.984375 C 477.277344 39.777344 480.980469 38.613281 485.492188 38.613281 C 487.417969 38.613281 489.320313 38.785156 490.996094 39.109375 L 491.941406 39.292969 L 491.941406 22.890625 L 491.257813 22.8125 C 489.425781 22.605469 487.902344 22.5 486.738281 22.5 C 479.761719 22.5 474.179688 24.757813 470.980469 28.789063 L 470.976563 22.609375 L 455.015625 22.609375 L 455.015625 77.441406 L 470.976563 77.441406 L 470.980469 51.367188 "/>
<g clip-path="url(#clip2)" clip-rule="nonzero">
<path style=" stroke:none;fill-rule:nonzero;fill:rgb(13.699341%,12.199402%,12.5%);fill-opacity:1;" d="M 644.722656 48.945313 C 644.722656 46.050781 645.769531 43.441406 647.675781 41.59375 C 649.558594 39.761719 652.203125 38.753906 655.113281 38.753906 C 661.246094 38.753906 664.765625 42.28125 664.765625 48.429688 L 664.765625 77.441406 L 680.855469 77.441406 L 680.855469 43.898438 C 680.855469 37.269531 678.886719 31.800781 675.40625 28.089844 C 671.878906 24.320313 666.746094 22.328125 660.324219 22.328125 C 653.28125 22.328125 647.136719 25.191406 644.722656 29.648438 L 644.707031 22.609375 L 628.75 22.609375 L 628.75 77.441406 L 644.707031 77.441406 L 644.722656 48.945313 "/>
</g>
<path style=" stroke:none;fill-rule:nonzero;fill:rgb(13.699341%,12.199402%,12.5%);fill-opacity:1;" d="M 267.839844 48.945313 C 267.839844 46.050781 268.886719 43.441406 270.789063 41.59375 C 272.675781 39.761719 275.320313 38.753906 278.230469 38.753906 C 284.363281 38.753906 287.882813 42.28125 287.882813 48.429688 L 287.882813 77.441406 L 303.96875 77.441406 L 303.96875 43.898438 C 303.96875 37.269531 302.003906 31.800781 298.523438 28.089844 C 294.992188 24.320313 289.859375 22.328125 283.441406 22.328125 C 276.398438 22.328125 270.253906 25.191406 267.839844 29.648438 L 267.824219 2.226563 L 251.863281 2.226563 L 251.863281 77.441406 L 267.824219 77.441406 L 267.839844 48.945313 "/>
</g>
</svg>
